<svg width="20" height="17" viewBox="0 0 20 17" fill="none" xmlns="http://www.w3.org/2000/svg">
<path d="M11.583 2.29413L16.55 10.8971H6.61613L11.583 2.29413Z" fill="#4A4646"/>
<path d="M9.55883 2.29413L14.5257 10.8971H4.59192L9.55883 2.29413Z" fill="#D9D9D9"/>
<circle cx="9.89619" cy="7.35467" r="1.68685" fill="#4A4646"/>
<path d="M0 3.32354C0 1.78039 1.25097 0.529419 2.79412 0.529419V0.529419C4.33727 0.529419 5.58824 1.78039 5.58824 3.32354V17H0V3.32354Z" fill="#4A4646"/>
<path d="M14.4118 3.32354C14.4118 1.78039 15.6627 0.529419 17.2059 0.529419V0.529419C18.749 0.529419 20 1.78039 20 3.32354V17H14.4118V3.32354Z" fill="#4A4646"/>
<rect x="0.294113" y="13.1765" width="19.4118" height="3.82353" rx="1.91176" fill="#4A4646"/>
<rect x="5.58824" y="10.8235" width="8.82353" height="6.17647" fill="#D9D9D9"/>
</svg>
